<svg xmlns="http://www.w3.org/2000/svg" width="96" height="96" viewBox="0 0 96 96">
<!-- border-image: slice 32 fill round -->
<rect width="96" height="96" fill="#231a17" fill-opacity=".0045"/>
<path d="M32,6 A10,10 0 0 1 48,6 A10,10 0 0 1 64,6 A20,20 0 0 1 90,32 A10,10 0 0 1 90,48 A10,10 0 0 1 90,64 A20,20 0 0 1 64,90 A10,10 0 0 1 48,90 A10,10 0 0 1 32,90 A20,20 0 0 1 6,64 A10,10 0 0 1 6,48 A10,10 0 0 1 6,32 A20,20 0 0 1 32,6Z" fill="#f7e9d8" stroke="#231a17" stroke-width="2.5" stroke-linejoin="round"/>
<g transform="translate(0,0)"><path d="M14,20 Q11.51,26.25 15,32 Q17.49,25.75 14,20Z" fill="#157554"/><path d="M20,14 Q26.25,11.51 32,15 Q25.75,17.49 20,14Z" fill="#157554"/><path d="M17,13.8 L20.2,17 L17,20.2 L13.8,17Z" fill="#e15654"/></g><g transform="translate(96,0) scale(-1,1)"><path d="M14,20 Q11.51,26.25 15,32 Q17.49,25.75 14,20Z" fill="#157554"/><path d="M20,14 Q26.25,11.51 32,15 Q25.75,17.49 20,14Z" fill="#157554"/><path d="M17,13.8 L20.2,17 L17,20.2 L13.8,17Z" fill="#e15654"/></g><g transform="translate(0,96) scale(1,-1)"><path d="M14,20 Q11.51,26.25 15,32 Q17.49,25.75 14,20Z" fill="#157554"/><path d="M20,14 Q26.25,11.51 32,15 Q25.75,17.49 20,14Z" fill="#157554"/><path d="M17,13.8 L20.2,17 L17,20.2 L13.8,17Z" fill="#e15654"/></g><g transform="translate(96,96) scale(-1,-1)"><path d="M14,20 Q11.51,26.25 15,32 Q17.49,25.75 14,20Z" fill="#157554"/><path d="M20,14 Q26.25,11.51 32,15 Q25.75,17.49 20,14Z" fill="#157554"/><path d="M17,13.8 L20.2,17 L17,20.2 L13.8,17Z" fill="#e15654"/></g>
</svg>
