<svg xmlns="http://www.w3.org/2000/svg" width="80" height="36" viewBox="0 0 80 36">
<!-- border-image: slice 15 14 17 fill -->
<rect width="80" height="36" fill="#231a17" fill-opacity=".0045"/>
<defs><filter id="g" x="0" y="0" width="100%" height="100%"><feTurbulence type="fractalNoise" baseFrequency=".9" numOctaves="2" seed="4" result="n"/><feColorMatrix in="n" values="0 0 0 0 .35  0 0 0 0 .22  0 0 0 0 .15  0 0 0 .07 0" result="c"/><feComposite in="c" in2="SourceGraphic" operator="in"/></filter></defs>
<path d="M6,5.5 C7.89,5.51 13.56,5.61 17.34,5.59 C21.12,5.56 24.9,5.5 28.67,5.37 C32.45,5.24 38.11,4.89 40,4.8 C41.89,4.72 47.55,4.42 51.33,4.33 C55.11,4.24 58.89,4.31 62.66,4.28 C66.44,4.26 72.11,4.21 74,4.2 C74.75,4.67 77.75,6.53 78.5,7 C78.25,8.17 77.25,12.83 77,14 C77.33,15.67 78.67,22.33 79,24 C78.33,25.67 75.67,32.33 75,34 C73.05,34.01 67.21,33.95 63.33,34.04 C59.44,34.14 55.55,34.42 51.66,34.58 C47.78,34.74 41.94,34.93 40,35 C38.06,34.92 32.23,34.56 28.34,34.55 C24.45,34.54 20.55,34.95 16.66,34.93 C12.77,34.9 6.94,34.49 5,34.4 C4.5,33.83 2.5,31.57 2,31 C2.25,29.83 3.25,25.17 3.5,24 C3.17,22.5 1.83,16.5 1.5,15 C1.75,14 2.75,10 3,9 C3.5,8.42 5.5,6.08 6,5.5Z" fill="#231a17"/>
<path d="M6,2.5 C7.89,2.48 13.56,2.53 17.34,2.38 C21.11,2.22 24.88,1.67 28.66,1.57 C32.43,1.47 38.11,1.76 40,1.8 C41.89,1.76 47.56,1.66 51.33,1.57 C55.11,1.49 58.89,1.35 62.66,1.29 C66.44,1.23 72.11,1.21 74,1.2 C74.75,1.67 77.75,3.53 78.5,4 C78.25,5.17 77.25,9.83 77,11 C77.33,12.67 78.67,19.33 79,21 C78.33,22.67 75.67,29.33 75,31 C73.06,31.1 67.23,31.52 63.34,31.57 C59.45,31.62 55.55,31.23 51.66,31.3 C47.77,31.37 41.94,31.88 40,32 C38.05,32.01 32.22,32.18 28.33,32.05 C24.44,31.93 20.56,31.36 16.67,31.25 C12.78,31.14 6.95,31.38 5,31.4 C4.5,30.83 2.5,28.57 2,28 C2.25,26.83 3.25,22.17 3.5,21 C3.17,19.5 1.83,13.5 1.5,12 C1.75,11 2.75,7 3,6 C3.5,5.42 5.5,3.08 6,2.5Z" fill="#f4a3a1" stroke="#231a17" stroke-width="3" stroke-linejoin="round"/>
<path d="M6,2.5 C7.89,2.48 13.56,2.53 17.34,2.38 C21.11,2.22 24.88,1.67 28.66,1.57 C32.43,1.47 38.11,1.76 40,1.8 C41.89,1.76 47.56,1.66 51.33,1.57 C55.11,1.49 58.89,1.35 62.66,1.29 C66.44,1.23 72.11,1.21 74,1.2 C74.75,1.67 77.75,3.53 78.5,4 C78.25,5.17 77.25,9.83 77,11 C77.33,12.67 78.67,19.33 79,21 C78.33,22.67 75.67,29.33 75,31 C73.06,31.1 67.23,31.52 63.34,31.57 C59.45,31.62 55.55,31.23 51.66,31.3 C47.77,31.37 41.94,31.88 40,32 C38.05,32.01 32.22,32.18 28.33,32.05 C24.44,31.93 20.56,31.36 16.67,31.25 C12.78,31.14 6.95,31.38 5,31.4 C4.5,30.83 2.5,28.57 2,28 C2.25,26.83 3.25,22.17 3.5,21 C3.17,19.5 1.83,13.5 1.5,12 C1.75,11 2.75,7 3,6 C3.5,5.42 5.5,3.08 6,2.5Z" fill="#000" filter="url(#g)"/>
<path d="M12,29.6 H68" stroke="#000" stroke-opacity=".28" stroke-width="2" stroke-linecap="round"/>
</svg>
