<svg xmlns="http://www.w3.org/2000/svg" width="80" height="36" viewBox="0 0 80 36">
<!-- border-image: slice 15 14 17 fill -->
<rect width="80" height="36" fill="#231a17" fill-opacity=".0045"/>
<defs><filter id="g" x="0" y="0" width="100%" height="100%"><feTurbulence type="fractalNoise" baseFrequency=".9" numOctaves="2" seed="4" result="n"/><feColorMatrix in="n" values="0 0 0 0 .35  0 0 0 0 .22  0 0 0 0 .15  0 0 0 .07 0" result="c"/><feComposite in="c" in2="SourceGraphic" operator="in"/></filter></defs>
<path d="M6,5.5 C7.89,5.41 13.55,5.01 17.33,4.93 C21.1,4.86 24.89,5.08 28.67,5.06 C32.45,5.04 38.11,4.84 40,4.8 C41.89,4.82 47.56,4.96 51.34,4.93 C55.12,4.9 58.89,4.72 62.67,4.6 C66.45,4.48 72.11,4.27 74,4.2 C74.75,4.67 77.75,6.53 78.5,7 C78.25,8.17 77.25,12.83 77,14 C77.33,15.67 78.67,22.33 79,24 C78.33,25.67 75.67,32.33 75,34 C73.05,34.02 67.22,34 63.33,34.1 C59.44,34.19 55.55,34.43 51.66,34.58 C47.78,34.73 41.94,34.93 40,35 C38.06,34.99 32.22,34.99 28.33,34.94 C24.44,34.88 20.55,34.77 16.67,34.68 C12.78,34.59 6.94,34.45 5,34.4 C4.5,33.83 2.5,31.57 2,31 C2.25,29.83 3.25,25.17 3.5,24 C3.17,22.5 1.83,16.5 1.5,15 C1.75,14 2.75,10 3,9 C3.5,8.42 5.5,6.08 6,5.5Z" fill="#231a17"/>
<path d="M6,2.5 C7.89,2.52 13.56,2.73 17.34,2.64 C21.12,2.56 24.89,2.12 28.67,1.98 C32.44,1.84 38.11,1.83 40,1.8 C41.89,1.82 47.56,1.99 51.34,1.91 C55.12,1.82 58.89,1.4 62.66,1.28 C66.44,1.16 72.11,1.21 74,1.2 C74.75,1.67 77.75,3.53 78.5,4 C78.25,5.17 77.25,9.83 77,11 C77.33,12.67 78.67,19.33 79,21 C78.33,22.67 75.67,29.33 75,31 C73.06,31.05 67.22,31.24 63.33,31.28 C59.44,31.31 55.54,31.07 51.65,31.19 C47.76,31.32 41.94,31.87 40,32 C38.05,32.05 32.21,32.39 28.33,32.27 C24.44,32.16 20.56,31.46 16.67,31.32 C12.78,31.17 6.95,31.39 5,31.4 C4.5,30.83 2.5,28.57 2,28 C2.25,26.83 3.25,22.17 3.5,21 C3.17,19.5 1.83,13.5 1.5,12 C1.75,11 2.75,7 3,6 C3.5,5.42 5.5,3.08 6,2.5Z" fill="#157554" stroke="#231a17" stroke-width="3" stroke-linejoin="round"/>
<path d="M6,2.5 C7.89,2.52 13.56,2.73 17.34,2.64 C21.12,2.56 24.89,2.12 28.67,1.98 C32.44,1.84 38.11,1.83 40,1.8 C41.89,1.82 47.56,1.99 51.34,1.91 C55.12,1.82 58.89,1.4 62.66,1.28 C66.44,1.16 72.11,1.21 74,1.2 C74.75,1.67 77.75,3.53 78.5,4 C78.25,5.17 77.25,9.83 77,11 C77.33,12.67 78.67,19.33 79,21 C78.33,22.67 75.67,29.33 75,31 C73.06,31.05 67.22,31.24 63.33,31.28 C59.44,31.31 55.54,31.07 51.65,31.19 C47.76,31.32 41.94,31.87 40,32 C38.05,32.05 32.21,32.39 28.33,32.27 C24.44,32.16 20.56,31.46 16.67,31.32 C12.78,31.17 6.95,31.39 5,31.4 C4.5,30.83 2.5,28.57 2,28 C2.25,26.83 3.25,22.17 3.5,21 C3.17,19.5 1.83,13.5 1.5,12 C1.75,11 2.75,7 3,6 C3.5,5.42 5.5,3.08 6,2.5Z" fill="#000" filter="url(#g)"/>
<path d="M12,29.6 H68" stroke="#000" stroke-opacity=".28" stroke-width="2" stroke-linecap="round"/>
</svg>
