<svg xmlns="http://www.w3.org/2000/svg" width="60" height="34" viewBox="0 0 60 34">
<rect width="60" height="34" fill="#231a17" fill-opacity=".0045"/>
<path d="M15.5,4.5 H44.5 A14,14 0 0 1 58.5,18.5 V18.5 A14,14 0 0 1 44.5,32.5 H15.5 A14,14 0 0 1 1.5,18.5 V18.5 A14,14 0 0 1 15.5,4.5Z" fill="#231a17"/>
<path d="M15.5,1.5 H44.5 A14,14 0 0 1 58.5,15.5 V15.5 A14,14 0 0 1 44.5,29.5 H15.5 A14,14 0 0 1 1.5,15.5 V15.5 A14,14 0 0 1 15.5,1.5Z" fill="#157554" stroke="#231a17" stroke-width="2.5"/>
<path d="M15.5,5 H44.5 A10.5,10.5 0 0 1 55,15.5 V15.5 A10.5,10.5 0 0 1 44.5,26 H15.5 A10.5,10.5 0 0 1 5,15.5 V15.5 A10.5,10.5 0 0 1 15.5,5Z" fill="none" stroke="#a3c98b" stroke-opacity=".45" stroke-width="1"/>
<circle cx="41" cy="17" r="10.5" fill="#231a17"/>
<circle cx="41" cy="15.5" r="10.5" fill="#fbf3e8" stroke="#231a17" stroke-width="2.2"/>
<path d="M41,12.1 L44.4,15.5 L41,18.9 L37.6,15.5Z" fill="#e15654"/>
</svg>
